<svg xmlns="http://www.w3.org/2000/svg" width="640" height="400" viewBox="0 0 640 400" role="img" aria-labelledby="title"><title id="title">월요일 오후 희망 시간 선택 예시</title><rect width="640" height="400" rx="32" fill="#eef7ff"/><rect x="52" y="42" width="536" height="316" rx="22" fill="#fff" stroke="#cde4f5" stroke-width="3"/><text x="88" y="91" fill="#222222" font-family="Arial, sans-serif" font-size="27" font-weight="700">가능한 시간</text><text x="88" y="123" fill="#625845" font-family="Arial, sans-serif" font-size="18">월요일 오후를 선택했어요</text><text x="154" y="165" fill="#438cc9" font-family="Arial, sans-serif" font-size="19" font-weight="700">월</text><text x="278" y="165" fill="#756a59" font-family="Arial, sans-serif" font-size="19">화</text><text x="402" y="165" fill="#756a59" font-family="Arial, sans-serif" font-size="19">수</text><text x="88" y="218" fill="#756a59" font-family="Arial, sans-serif" font-size="17">14:00</text><text x="88" y="286" fill="#756a59" font-family="Arial, sans-serif" font-size="17">14:30</text><g stroke="#cde4f5" stroke-width="3"><rect x="136" y="182" width="92" height="46" rx="9" fill="#5dadec"/><rect x="260" y="182" width="92" height="46" rx="9" fill="#f5fbff"/><rect x="384" y="182" width="92" height="46" rx="9" fill="#f5fbff"/><rect x="136" y="250" width="92" height="46" rx="9" fill="#5dadec"/><rect x="260" y="250" width="92" height="46" rx="9" fill="#f5fbff"/><rect x="384" y="250" width="92" height="46" rx="9" fill="#f5fbff"/></g><path d="M172 205l10 10 20-22M172 273l10 10 20-22" fill="none" stroke="#fff" stroke-width="4" stroke-linecap="round" stroke-linejoin="round"/></svg>
